<svg width="101" height="52" viewBox="0 0 101 52" fill="none" xmlns="http://www.w3.org/2000/svg">
<g clip-path="url(#clip0_4362_7342)">
<path d="M58.106 5.74022V24.9235M58.106 40.9996V52M72.5382 9.38999H50.6504M100.442 9.38999H84.8225M96.2765 44.6948V0M54.1132 47.4783H74.4M91.7623 47.4783H98.8779" stroke="#999B9E" stroke-width="0.423718"/>
<path d="M79.5358 23.9223C84.3277 23.9223 88.2099 20.0283 88.2099 15.2282C88.2099 10.4281 84.3248 6.53125 79.5358 6.53125C74.7468 6.53125 70.8589 10.4253 70.8589 15.2282C70.8589 20.0311 74.7439 23.9223 79.5358 23.9223Z" stroke="#D53744" stroke-width="2.33966"/>
<path d="M67.5539 24.9648H52.2856V40.2683H67.5539V24.9648Z" stroke="#2C7AAB" stroke-width="2.33966"/>
<path d="M83.09 33.3984L74.1523 48.9121H92.0248L83.09 33.3984Z" stroke="#F6B033" stroke-width="2.33966"/>
<path d="M45.08 50.1315V47.0697C45.08 45.8029 44.5246 45.1923 43.4478 45.1923C42.3709 45.1923 41.8779 45.7064 41.7022 45.9506V45.3144H40.7954V50.1287H41.7022V46.5783C41.8949 46.2318 42.4503 45.7745 43.0935 45.7745C43.8841 45.7745 44.1959 46.283 44.1959 46.9731V50.1287H45.08V50.1315ZM39.1716 47.7258C39.1716 48.9642 38.5624 49.7396 37.6244 49.7396C36.6864 49.7396 36.0715 48.9869 36.0715 47.7258C36.0715 46.4647 36.6184 45.7291 37.6244 45.7291C38.6304 45.7291 39.1716 46.5045 39.1716 47.7258ZM40.1124 47.7372C40.1124 46.1353 39.1206 45.1355 37.6244 45.1355C36.1282 45.1355 35.1222 46.1353 35.1222 47.7372C35.1222 49.3391 36.1197 50.3247 37.6244 50.3247C39.1291 50.3247 40.1124 49.3675 40.1124 47.7372ZM34.4478 45.3201H33.5382V50.1344H34.4478V45.3201ZM34.4818 44.0249C34.4818 43.7466 34.2608 43.5137 33.9887 43.5137C33.7167 43.5137 33.4815 43.7466 33.4815 44.0249C33.4815 44.3033 33.7138 44.5333 33.9887 44.5333C34.2636 44.5333 34.4818 44.3033 34.4818 44.0249ZM33.2123 49.8646C33.1301 49.7027 33.0196 49.4896 32.9261 49.376C32.8269 49.4584 32.6059 49.6828 32.2318 49.6828C31.7954 49.6828 31.5234 49.3419 31.5234 48.8932V45.9251H32.5548C32.6625 45.7802 32.7787 45.5587 32.807 45.3201H31.5234V43.5591C31.1323 43.6216 30.9793 43.6557 30.6251 43.9539V48.737C30.6251 49.8106 31.1663 50.2963 31.9541 50.2963C32.4727 50.2963 32.9516 50.1344 33.2094 49.8646M28.7775 48.1405C28.7775 49.1374 27.9925 49.714 27.2614 49.714C26.8732 49.714 26.4906 49.5379 26.4906 49.146C26.4906 48.6745 26.57 48.2996 27.2983 48.0553C27.5306 47.9786 28.4573 47.5952 28.7775 47.3452V48.1433V48.1405ZM29.9365 50.1344C29.7749 49.7481 29.6871 49.1005 29.6871 48.7796V46.8539C29.6871 45.4053 28.8171 45.1525 27.8423 45.1525C27.1452 45.1525 26.3546 45.3371 25.7567 45.7376C25.785 45.891 25.9296 46.0557 26.0712 46.2347C26.3858 45.9876 27.0177 45.7291 27.5731 45.7291C28.3524 45.7291 28.6329 45.9876 28.6981 46.388C28.7435 46.6976 28.5876 47.0981 27.6128 47.3765C25.8842 47.8707 25.5328 48.345 25.5328 49.2539C25.5328 49.8589 26.1534 50.3105 26.9072 50.3105C27.4966 50.3105 28.1597 50.3105 28.8001 49.3618C28.8001 49.5493 28.8766 49.9441 28.9588 50.1287H29.9365V50.1344ZM23.9516 47.7372C23.9516 48.8023 23.4869 49.7197 22.5687 49.7197C21.6506 49.7197 21.1519 48.879 21.1519 47.7741C21.1519 46.6692 21.6789 45.874 22.5687 45.874C23.4585 45.874 23.9516 46.6323 23.9516 47.7372ZM25.0001 50.1344C24.9207 49.9498 24.8046 49.3505 24.8046 48.8023V43.5591H23.9006V46.1523C23.5265 45.5274 22.9853 45.3002 22.325 45.3002C21.1859 45.3002 20.2111 46.1921 20.2111 47.7741C20.2111 49.3561 21.1972 50.2963 22.3562 50.2963C22.9768 50.2963 23.5265 50.0549 23.9148 49.3959C23.9148 49.5976 23.9743 49.9327 24.0394 50.1344H25.0001ZM19.5848 50.1344V47.0726C19.5848 45.8058 19.0379 45.1951 17.9611 45.1951C16.8842 45.1951 16.3912 45.7092 16.2127 45.9535V45.3173H15.303V50.1315H16.2127V46.5812C16.4053 46.2347 16.9664 45.7774 17.6012 45.7774C18.3975 45.7774 18.6978 46.2858 18.6978 46.976V50.1315H19.5876L19.5848 50.1344ZM14.4047 50.1344V45.3201H13.5121V48.8932C13.3109 49.2425 12.8773 49.6743 12.2454 49.6743C11.3273 49.6743 11.0184 49.2113 11.0184 48.3706V45.3201H10.1201V48.2456C10.1201 49.5124 10.7152 50.2594 11.8402 50.2594C12.8688 50.2594 13.3166 49.7651 13.5064 49.5266V50.1344H14.3991H14.4047ZM8.53037 47.7287C8.53037 48.967 7.92112 49.7424 6.98315 49.7424C6.04518 49.7424 5.43309 48.9897 5.43309 47.7287C5.43309 46.4676 5.98 45.7319 6.98315 45.7319C7.98629 45.7319 8.53037 46.5073 8.53037 47.7287ZM9.47401 47.74C9.47401 46.1381 8.48503 45.1383 6.98315 45.1383C5.48127 45.1383 4.48379 46.1381 4.48379 47.74C4.48379 49.3419 5.48127 50.3275 6.98315 50.3275C8.48503 50.3275 9.47401 49.3703 9.47401 47.74ZM4.24575 44.13C4.28543 43.8971 4.26842 43.8034 4.25992 43.562H1.15981C0.686573 43.562 0.442871 43.846 0.442871 44.3544V50.1372H1.36384V47.047H3.39846C3.41547 46.8084 3.42397 46.7204 3.38996 46.4818H1.36384V44.2635C1.36384 44.1783 1.38084 44.13 1.48852 44.13H4.25142H4.24575Z" fill="#95979A"/>
<path d="M45.0165 34.3054H43.6846V41.3691H45.0165V34.3054ZM45.0788 32.4024C45.0788 31.9962 44.7444 31.661 44.3392 31.661C43.934 31.661 43.5996 31.999 43.5996 32.4024C43.5996 32.8057 43.9368 33.1494 44.3392 33.1494C44.7416 33.1494 45.0788 32.8114 45.0788 32.4024ZM42.3357 31.7264H41.0237V41.372H42.3357V31.7264ZM38.5499 36.1033C38.5499 37.2053 37.6289 37.6796 35.036 38.2448C34.7696 36.7792 35.5121 34.9047 37.0621 34.9047C37.8272 34.9047 38.5499 35.3563 38.5499 36.1033ZM39.9809 36.1317C39.9809 34.6973 38.5867 34.0355 37.2038 34.0355C34.747 34.0355 33.6333 35.8817 33.6333 37.8529C33.6333 40.0484 35.0247 41.6503 37.1897 41.6503C38.1985 41.6503 38.9239 41.3691 39.6748 40.7642C39.604 40.5682 39.4368 40.3126 39.213 40.0257C38.4422 40.6676 38.0369 40.8068 37.4135 40.8068C36.1525 40.8068 35.4327 39.9888 35.1579 38.989C38.3175 38.313 39.9866 37.6342 39.9866 36.1317M32.6528 34.3054H31.321V41.3691H32.6528V34.3054ZM32.7095 32.4024C32.7095 31.9962 32.3836 31.661 31.9784 31.661C31.5732 31.661 31.236 31.999 31.236 32.4024C31.236 32.8057 31.5788 33.1494 31.9784 33.1494C32.378 33.1494 32.7095 32.8114 32.7095 32.4024ZM30.8477 34.2627C30.4907 34.1321 30.1223 34.0668 29.7624 34.0668C28.4872 34.0668 27.9885 34.6121 27.6314 35.4045C27.6314 35.1092 27.5464 34.5979 27.4359 34.3082H26.0275C26.1296 34.5723 26.2996 35.4585 26.2996 36.2623V41.372H27.6314V37.5177C27.6314 35.7653 28.4702 34.9047 29.4564 34.9047C29.7993 34.9047 30.1676 34.9785 30.5332 35.1915C30.6607 34.9785 30.7656 34.5979 30.8449 34.2627M25.0697 41.3691C25.1037 41.0198 25.1151 40.8238 25.0386 40.483H21.3207C21.094 40.483 21.0685 40.4233 21.1762 40.287L24.9961 35.4557C25.4806 34.8677 25.2256 34.3054 24.3358 34.3054H19.5666C19.5383 34.6547 19.5241 34.8422 19.5779 35.1915H23.276C23.497 35.1915 23.5367 35.2625 23.412 35.4045L19.6261 40.216C19.1614 40.8096 19.3314 41.372 20.292 41.372H25.0726L25.0697 41.3691ZM16.3758 37.1598H13.3664L14.6416 32.7801C14.6727 32.6693 14.7351 32.5983 14.8853 32.5983C15.0354 32.5983 15.095 32.6693 15.1261 32.7801L16.3758 37.1598ZM19.1019 41.3691L16.407 33.0073C16.1434 32.1723 15.8006 31.6582 14.8881 31.6582C13.9756 31.6582 13.6186 32.2206 13.3692 33.0073L10.6743 41.3691H12.1535L13.1255 37.9949H16.6337L17.6198 41.3691H19.1047H19.1019Z" fill="#231F20"/>
<path d="M2.31143 23.8505C1.85803 24.1118 1.26577 24.2993 0.534668 24.4186V19.1328H2.31143V23.8505Z" fill="#231F20"/>
<path d="M10.7636 22.2587C10.7636 24.0026 10.1713 25.4852 8.9868 26.7094C7.94965 27.7859 6.78498 28.3852 5.4928 28.5101C5.44462 28.3795 5.42195 28.192 5.42195 27.9421C5.42195 27.6921 5.44462 27.5075 5.4928 27.3485C7.78813 26.681 8.93296 25.0478 8.93296 22.4461C8.93296 21.0402 8.22452 20.3358 6.81049 20.3358H4.33379C4.07309 20.3358 3.8974 20.3017 3.80388 20.2392C3.72171 20.1739 3.6792 19.9694 3.6792 19.6286V16.4531H5.43895V18.9355C5.43895 19.0719 5.48713 19.14 5.58064 19.14H7.60677C9.71224 19.14 10.7664 20.1796 10.7664 22.2615L10.7636 22.2587Z" fill="#231F20"/>
<path d="M20.3198 28.0712C20.3198 28.1905 20.2773 28.2473 20.1951 28.2473H18.5062C18.0924 27.6565 17.6107 26.9834 17.061 26.225C16.5084 25.4695 15.885 24.6231 15.1907 23.6886C14.9612 23.4103 14.7685 23.2711 14.6154 23.2711C14.3547 23.2711 14.145 23.4699 13.9779 23.8647C13.7823 24.3021 13.686 24.8958 13.686 25.6484V28.2473H11.9517V26.634C11.9517 24.5947 12.6885 23.1632 14.1649 22.3423L11.7845 19.4424C11.7137 19.3544 11.6797 19.2862 11.6797 19.2379C11.6797 19.1669 11.7392 19.1328 11.8554 19.1328H13.6151C14.0289 19.6696 14.5021 20.2831 15.0348 20.9676C15.5676 21.6521 16.1712 22.4219 16.8428 23.274C16.9363 23.4046 17.0241 23.4699 17.1091 23.4699C17.6929 23.4699 17.9848 22.7087 17.9848 21.1807V19.1328H19.719V20.8341C19.719 22.4247 19.0191 23.5949 17.622 24.3447C18.2823 25.2139 19.1579 26.3926 20.2489 27.8837C20.2971 27.9604 20.3198 28.0229 20.3198 28.0712Z" fill="#231F20"/>
<path d="M23.1088 23.8505C22.6554 24.1118 22.0631 24.2993 21.332 24.4186V19.1328H23.1088V23.8505Z" fill="#231F20"/>
<path d="M30.5611 28.2551H28.8013V22.6597C28.8013 22.2507 28.7616 21.9014 28.6823 21.6088C28.603 21.3163 28.4783 21.0749 28.3054 20.8874C28.1354 20.6999 27.9115 20.5579 27.6366 20.4699C27.3618 20.3818 27.0302 20.3364 26.642 20.3364H24.2362C24.2248 20.237 24.2163 20.1376 24.2106 20.0438C24.205 19.9501 24.2021 19.8564 24.2021 19.7598C24.2021 19.6604 24.205 19.5553 24.2106 19.4502C24.2163 19.3423 24.2248 19.24 24.2362 19.1406H27.0841C28.2402 19.1406 29.096 19.382 29.6486 19.8677C30.255 20.4046 30.5611 21.2907 30.5611 22.5177V28.2551Z" fill="#231F20"/>
<path d="M36.3152 19.1328C36.3095 19.4509 36.1593 19.84 35.8646 20.2945C34.8615 20.2945 34.3599 20.9591 34.3599 22.2884C34.3599 22.4417 34.3656 22.6065 34.3769 22.7854C34.3882 22.9615 34.4053 23.1547 34.4308 23.362L34.9437 28.2473H33.1471L32.7305 23.6375C32.7248 23.5551 32.7192 23.4728 32.7163 23.3904C32.7135 23.308 32.7107 23.2285 32.7107 23.1518C32.7107 21.7629 33.1612 20.8228 34.0652 20.3314H31.7472C31.7132 20.0957 31.6934 19.8713 31.6934 19.6583C31.6934 19.6185 31.6934 19.5532 31.7019 19.468C31.7075 19.3828 31.716 19.272 31.7274 19.1357H36.3095L36.3152 19.1328Z" fill="#231F20"/>
<path d="M45.0688 23.8214C45.0688 24.5315 44.9782 25.1592 44.794 25.7102C44.6098 26.2612 44.3406 26.7242 43.9807 27.102C43.6208 27.4797 43.1731 27.7666 42.6403 27.9626C42.1076 28.1585 41.4927 28.2551 40.7956 28.2551H37.0975C37.0748 28.008 37.0635 27.7865 37.0663 27.5905C37.0692 27.3945 37.0862 27.2241 37.1145 27.0764H39.254L37.4942 19.2656C37.4631 19.1832 37.4886 19.1406 37.5651 19.1406H39.3418C39.5884 20.4301 39.8377 21.7281 40.0899 23.0375C40.3422 24.3469 40.6 25.6818 40.8636 27.0423C42.4958 27.0423 43.3148 26.176 43.3148 24.4434V19.1406H45.066V23.8214H45.0688Z" fill="#231F20"/>
<path d="M35.1431 15.7352H34.1201V8.9668H35.1431V15.7352Z" fill="#95979A"/>
<path d="M39.574 14.2091H38.5623V10.991C38.5623 10.7553 38.5397 10.5565 38.4943 10.3861C38.449 10.2185 38.3753 10.0793 38.279 9.97137C38.1798 9.86344 38.0523 9.78391 37.8936 9.73279C37.7349 9.68166 37.545 9.6561 37.3212 9.6561H35.9383C35.9326 9.59929 35.927 9.54249 35.9241 9.48852C35.9213 9.43456 35.9185 9.38059 35.9185 9.32663C35.9185 9.27266 35.9185 9.21017 35.9241 9.14769C35.927 9.0852 35.9326 9.0284 35.9383 8.96875H37.5762C38.2421 8.96875 38.7324 9.10792 39.0526 9.38627C39.4011 9.69586 39.5768 10.2043 39.5768 10.9115V14.2119L39.574 14.2091Z" fill="#95979A"/>
<path d="M45.0746 10.9712C45.0746 11.8715 44.8139 12.6412 44.2953 13.2775C43.7824 13.9137 43.1561 14.2517 42.4165 14.2915C42.3882 14.1892 42.3882 13.9762 42.4165 13.6552C42.9549 13.5501 43.3686 13.2377 43.6577 12.7179C43.9127 12.2578 44.0402 11.6926 44.0402 11.0138C44.0402 10.1105 43.5953 9.6561 42.7084 9.6561H40.5009C40.4811 9.51977 40.4697 9.41183 40.4697 9.33515C40.4697 9.20165 40.4811 9.07952 40.5009 8.96875H43.0456C44.4001 8.96875 45.0746 9.63622 45.0746 10.974V10.9712ZM41.5947 15.7343H40.5717V11.1586C40.9118 10.9314 41.2518 10.8178 41.5947 10.8206V15.7315V15.7343Z" fill="#95979A"/>
</g>
<defs>
<clipPath id="clip0_4362_7342">
<rect width="100" height="52" fill="white" transform="translate(0.441895)"/>
</clipPath>
</defs>
</svg>
