<svg width="117" height="32" viewBox="0 0 117 32" fill="none" xmlns="http://www.w3.org/2000/svg">
<path d="M43.2178 18.3281H44.1016V11.1664H43.2178V18.3281Z" fill="#003F6B"/>
<path d="M45.4668 17.5743L45.8416 17.081C46.2548 17.5165 46.8799 17.8454 47.5714 17.8454C48.3014 17.8454 48.802 17.5353 48.802 16.9841C48.802 16.3939 48.3405 16.2002 47.4756 16.0065C46.4855 15.7933 45.6584 15.5515 45.6584 14.516C45.6584 13.6548 46.3506 13.1029 47.4274 13.1029C48.4174 13.1029 48.9936 13.4415 49.4362 13.8485L49.0607 14.3418C48.6475 13.9837 48.1384 13.7126 47.5043 13.7126C46.7932 13.7126 46.466 14.0415 46.466 14.4484C46.466 14.9808 46.9085 15.1453 47.6868 15.3188C48.6761 15.5327 49.618 15.7835 49.618 16.858C49.618 17.9227 48.7153 18.4355 47.5805 18.4355C46.5911 18.4355 45.9185 18.0488 45.4668 17.5743Z" fill="#003F6B"/>
<path d="M50.8096 13.2087H51.6836V14.2247C52.1164 13.5481 52.6254 13.054 53.7406 13.1313L53.721 13.8958C52.7317 13.7892 52.2227 14.1766 51.6745 14.9027V18.3281H50.8096V13.2087Z" fill="#003F6B"/>
<path d="M57.8435 16.9841V15.5222C55.9221 15.7647 55.2775 16.2873 55.2775 16.9841C55.2775 17.4872 55.6145 17.7583 56.162 17.7583C56.9115 17.7583 57.5457 17.313 57.8435 16.9841ZM54.4224 17.1096C54.4224 15.9299 55.6047 15.2707 57.8435 15.0289V14.7383C57.8435 14.1676 57.5653 13.7802 56.873 13.7802C56.0564 13.7802 55.4222 14.1774 55.0279 14.5265L54.6335 14.0227C55.0565 13.6067 55.825 13.1036 56.9891 13.1036C58.1896 13.1036 58.6896 13.7328 58.6896 14.8547V17.1681C58.6896 17.807 58.7175 18.0579 58.814 18.329H57.9589C57.8722 18.0976 57.8435 17.8837 57.8435 17.4872C57.4205 17.9617 56.7094 18.4355 55.8536 18.4355C55.0188 18.4355 54.4224 17.991 54.4224 17.1096Z" fill="#003F6B"/>
<path d="M63.4936 15.3968C63.4265 14.2937 62.879 13.7418 62.1385 13.7418C61.4561 13.7418 60.8031 14.2742 60.6975 15.3968H63.4936ZM59.813 15.7842C59.813 13.8589 61.1205 13.1036 62.1385 13.1036C63.1866 13.1036 64.2816 13.7711 64.2816 15.8225V15.9487H60.6779C60.7171 17.0036 61.2359 17.7973 62.2057 17.7973C62.9077 17.7973 63.4838 17.3423 63.8782 16.8963L64.2438 17.4189C63.7341 17.9617 63.0419 18.4355 62.1483 18.4355C60.7842 18.4355 59.813 17.4099 59.813 15.7842Z" fill="#003F6B"/>
<path d="M65.5215 18.3281H66.3857V11.1664H65.5215V18.3281Z" fill="#003F6B"/>
<path d="M70.4219 18.3281H71.3057V11.1664H70.4219V18.3281Z" fill="#003F6B"/>
<path d="M72.9976 13.2087H73.8716V14.0609C74.1792 13.7223 74.8616 13.1028 75.8035 13.1028C76.7935 13.1028 77.3221 13.615 77.3221 14.6706V18.3281H76.4572V14.9117C76.4572 14.2066 76.1593 13.8379 75.4769 13.8379C74.8616 13.8379 74.3142 14.1961 73.8716 14.6218V18.3281H72.9976V13.2087Z" fill="#003F6B"/>
<path d="M78.7144 13.2087H79.5891V14.0609C79.8967 13.7223 80.5791 13.1028 81.521 13.1028C82.511 13.1028 83.0389 13.615 83.0389 14.6706V18.3281H82.174V14.9117C82.174 14.2066 81.8761 13.8379 81.1937 13.8379C80.5791 13.8379 80.031 14.1961 79.5891 14.6218V18.3281H78.7144V13.2087Z" fill="#003F6B"/>
<path d="M88.0646 15.7738C88.0646 14.6025 87.45 13.7614 86.5467 13.7614C85.6524 13.7614 85.028 14.5836 85.028 15.7738C85.028 16.9354 85.6426 17.7966 86.5467 17.7966C87.4304 17.7966 88.0646 16.9639 88.0646 15.7738ZM84.1631 15.7738C84.1631 13.9642 85.3447 13.1029 86.5467 13.1029C87.7283 13.1029 88.9295 13.9642 88.9295 15.7738C88.9295 17.5451 87.7283 18.4355 86.5467 18.4355C85.3545 18.4355 84.1631 17.5451 84.1631 15.7738Z" fill="#003F6B"/>
<path d="M89.5928 13.2087H90.4863L91.9575 17.37L93.437 13.2087H94.2536L92.37 18.3477H91.4764L89.5928 13.2087Z" fill="#003F6B"/>
<path d="M98.2894 16.9841V15.5222C96.3673 15.7647 95.7233 16.2873 95.7233 16.9841C95.7233 17.4872 96.0603 17.7583 96.6078 17.7583C97.3573 17.7583 97.9915 17.313 98.2894 16.9841ZM94.8682 17.1096C94.8682 15.9299 96.0505 15.2707 98.2894 15.0289V14.7383C98.2894 14.1676 98.0111 13.7802 97.3189 13.7802C96.5022 13.7802 95.8673 14.1774 95.4737 14.5265L95.08 14.0227C95.5023 13.6067 96.2708 13.1036 97.4342 13.1036C98.6355 13.1036 99.1347 13.7328 99.1347 14.8547V17.1681C99.1347 17.807 99.1634 18.0579 99.2598 18.329H98.4047C98.318 18.0976 98.2894 17.8837 98.2894 17.4872C97.8663 17.9617 97.1553 18.4355 96.3001 18.4355C95.4646 18.4355 94.8682 17.991 94.8682 17.1096Z" fill="#003F6B"/>
<path d="M100.951 17.0509V13.8673H100.087V13.2088H100.951V11.3999H101.816V13.2088H103.19V13.8673H101.816V16.906C101.816 17.4774 101.979 17.729 102.614 17.729C102.796 17.729 102.989 17.7102 103.152 17.6704V18.3191C103.018 18.3484 102.584 18.3867 102.335 18.3867C101.153 18.3867 100.951 17.8934 100.951 17.0509Z" fill="#003F6B"/>
<path d="M104.371 13.2087H105.236V18.3281H104.371V13.2087ZM104.343 11.3803H105.266V12.2032H104.343V11.3803Z" fill="#003F6B"/>
<path d="M110.387 15.7738C110.387 14.6025 109.773 13.7614 108.869 13.7614C107.976 13.7614 107.351 14.5836 107.351 15.7738C107.351 16.9354 107.966 17.7966 108.869 17.7966C109.753 17.7966 110.387 16.9639 110.387 15.7738ZM106.486 15.7738C106.486 13.9642 107.667 13.1029 108.869 13.1029C110.051 13.1029 111.252 13.9642 111.252 15.7738C111.252 17.5451 110.051 18.4355 108.869 18.4355C107.678 18.4355 106.486 17.5451 106.486 15.7738Z" fill="#003F6B"/>
<path d="M112.453 13.2087H113.328V14.0609C113.635 13.7223 114.317 13.1028 115.259 13.1028C116.249 13.1028 116.778 13.615 116.778 14.6706V18.3281H115.913V14.9117C115.913 14.2066 115.614 13.8379 114.933 13.8379C114.317 13.8379 113.77 14.1961 113.328 14.6218V18.3281H112.453V13.2087Z" fill="#003F6B"/>
<path d="M46.1637 27.1014L45.01 23.8404L43.8472 27.1014H46.1637ZM44.6059 22.669H45.4617L48.0173 29.8691H47.1048L46.3749 27.7697H43.6256L42.876 29.8691H42.0503L44.6059 22.669Z" fill="#003F6B"/>
<path d="M48.978 28.4087V24.7505H49.8527V28.1865C49.8527 28.8931 50.1513 29.261 50.8337 29.261C51.4385 29.261 51.986 28.9028 52.4384 28.4861V24.7505H53.3033V29.87H52.4384V29.0185C52.1307 29.3571 51.4483 29.9766 50.5065 29.9766C49.5066 29.9766 48.978 29.4637 48.978 28.4087Z" fill="#003F6B"/>
<path d="M55.186 28.5926V25.4082H54.3218V24.7505H55.186V22.9402H56.0509V24.7505H57.4255V25.4082H56.0509V28.447C56.0509 29.0177 56.2145 29.27 56.8487 29.27C57.0312 29.27 57.2235 29.2504 57.3864 29.2114V29.8602C57.2528 29.8894 56.82 29.9277 56.5697 29.9277C55.3881 29.9277 55.186 29.4344 55.186 28.5926Z" fill="#003F6B"/>
<path d="M58.5591 22.7074H59.4233V25.6012C59.7316 25.2626 60.4134 24.6431 61.365 24.6431C62.3543 24.6431 62.8836 25.1559 62.8836 26.2109V29.8691H62.0089V26.4527C62.0089 25.7461 61.7111 25.3789 61.0287 25.3789C60.4232 25.3789 59.8757 25.7371 59.4233 26.1628V29.8691H58.5591V22.7074Z" fill="#003F6B"/>
<path d="M67.9096 27.3154C67.9096 26.1441 67.2943 25.3024 66.3916 25.3024C65.4973 25.3024 64.8729 26.1253 64.8729 27.3154C64.8729 28.477 65.4882 29.3383 66.3916 29.3383C67.2754 29.3383 67.9096 28.5056 67.9096 27.3154ZM64.0073 27.3154C64.0073 25.5058 65.1897 24.6446 66.3916 24.6446C67.5726 24.6446 68.7745 25.5058 68.7745 27.3154C68.7745 29.0867 67.5726 29.9766 66.3916 29.9766C65.2002 29.9766 64.0073 29.0867 64.0073 27.3154Z" fill="#003F6B"/>
<path d="M69.9746 24.7504H70.8493V25.7663C71.2814 25.0891 71.7911 24.5957 72.9064 24.673L72.8868 25.4375C71.8967 25.3309 71.3877 25.7183 70.8395 26.4436V29.8691H69.9746V24.7504Z" fill="#003F6B"/>
<path d="M73.9542 24.7497H74.8184V29.8691H73.9542V24.7497ZM73.9248 22.9199H74.8471V23.7428H73.9248V22.9199Z" fill="#003F6B"/>
<path d="M76.7497 28.5926V25.4082H75.8848V24.7505H76.7497V22.9402H77.6146V24.7505H78.9885V25.4082H77.6146V28.447C77.6146 29.0177 77.7782 29.27 78.4124 29.27C78.5949 29.27 78.7872 29.2504 78.9508 29.2114V29.8602C78.8158 29.8894 78.3837 29.9277 78.1334 29.9277C76.9517 29.9277 76.7497 29.4344 76.7497 28.5926Z" fill="#003F6B"/>
<path d="M79.3154 31.6891L79.507 30.9923C79.7385 31.0501 80.0552 31.1177 80.3922 31.1177C80.8907 31.1177 81.1697 30.9142 81.3431 30.4404L81.5445 29.908L79.6035 24.7495H80.4971L81.9871 28.8531L83.4666 24.7495H84.3119L82.1018 30.6341C81.8039 31.418 81.3529 31.8438 80.4775 31.8438C79.9783 31.8438 79.6231 31.7664 79.3154 31.6891Z" fill="#003F6B"/>
<path d="M20.777 18.8262L13.9912 18.8248V11.9591H16.4622V16.3629L20.7776 16.3637L20.777 18.8262Z" fill="#003F6B"/>
<path d="M31.7253 30.3867L29.2543 30.386L29.255 25.9822H24.9409L24.9416 23.519L31.7267 23.5204L31.7253 30.3867Z" fill="#003F6B"/>
<path d="M20.7766 30.3145L13.8867 30.313V27.8505L18.3057 27.8512L18.3064 23.5519H20.778L20.7766 30.3145Z" fill="#003F6B"/>
<path d="M28.1706 20.293L26.4233 18.5517L29.5488 15.4369L26.4982 12.3968L28.2455 10.6555L33.0434 15.4376L28.1706 20.293Z" fill="#003F6B"/>
<path d="M8.70048 18.707L5.57575 15.5923L2.52514 18.6324L0.777832 16.8911L5.57575 12.1097L10.4478 16.9657L8.70048 18.707Z" fill="#003F6B"/>
<path d="M28.4411 7.6543L23.5684 2.79758L25.3164 1.05625L28.4411 4.17167L31.4917 1.13153L33.239 2.87282L28.4411 7.6543Z" fill="#003F6B"/>
<path d="M4.87234 7.80859L2.40137 7.80787L2.40206 1.04676H9.29269V3.50999H4.87304L4.87234 7.80859Z" fill="#003F6B"/>
<path d="M17.5316 9.63672L12.7344 4.85524L17.6071 -0.000116348L19.3544 1.74122L16.229 4.85592L19.2789 7.89538L17.5316 9.63672Z" fill="#003F6B"/>
<path d="M5.76303 32L0.96582 27.2192L5.83855 22.3639L7.58585 24.1052L4.46112 27.2192L7.51034 30.2594L5.76303 32Z" fill="#003F6B"/>
<path d="M42.9717 7.21822V6.53115C43.057 6.54091 43.1528 6.54094 43.2381 6.54094C43.8659 6.54094 44.0086 6.29632 44.0086 5.74236V1.75525H46.4159C47.6437 1.75525 48.2241 2.3106 48.2241 3.4666V7.21822H47.3389V3.37256C47.3389 2.78028 47.0061 2.44159 46.3775 2.44159H44.8742V5.87339C44.8742 6.7012 44.5701 7.25586 43.5143 7.25586C43.3618 7.25586 43.1332 7.23703 42.9717 7.21822Z" fill="#003F6B"/>
<path d="M50.0587 2.44216H49.4692V1.75582H50.9439V7.21875H50.0587V2.44216Z" fill="#003F6B"/>
<path d="M52.2275 7.20989V6.50403C52.4275 6.54166 52.6652 6.56047 52.8554 6.56047C53.4742 6.56047 53.8546 6.31656 53.8546 5.75215V2.44232H52.7505V1.75598H54.7398V5.79885C54.7398 6.61759 54.3014 7.27539 53.1407 7.27539C52.8939 7.27539 52.4373 7.24683 52.2275 7.20989Z" fill="#003F6B"/>
<path d="M58.7058 5.31019C58.9533 4.83985 59.0959 4.2378 59.0959 3.57026V1.75577H59.9713V3.48592C59.9713 4.43567 59.7623 5.03703 59.3532 5.56452L58.7058 5.31019ZM56.4795 1.75577H57.3451L57.7548 6.53168H59.8573C60.9229 6.53168 61.6081 5.52688 61.6081 4.18205V1.75577H62.4926V4.14441C62.4926 5.96795 61.4361 7.21875 59.9238 7.21875H56.9556L56.4795 1.75577Z" fill="#003F6B"/>
<path d="M66.3541 3.42953C66.3541 2.96894 66.4017 2.71531 66.5156 2.44216H63.8237V1.7565H68.0196V2.44216H67.3631C67.2771 2.70625 67.2484 2.95985 67.2484 3.39257V7.21875H66.3541V3.42953Z" fill="#003F6B"/>
<path d="M69.5215 1.75582H73.888V7.21875H72.9937V2.44216H70.406V7.21875H69.5215V1.75582Z" fill="#003F6B"/>
<path d="M79.0815 2.44216H75.7813V1.75582H79.9667V7.21875H79.0815V2.44216ZM75.7617 4.97157C75.7617 4.63292 75.8379 4.29497 75.9708 4.10613H76.7322C76.6658 4.3319 76.6371 4.57648 76.6371 5.18758V7.21875H75.7617V4.97157Z" fill="#003F6B"/>
<path d="M83.7329 7.21822V6.53115C83.8182 6.54091 83.9133 6.54094 83.9993 6.54094C84.6272 6.54094 84.7698 6.29632 84.7698 5.74236V1.75525H87.1772C88.4043 1.75525 88.9846 2.3106 88.9846 3.4666V7.21822H88.0994V3.37256C88.0994 2.78028 87.7666 2.44159 87.1387 2.44159H85.6361V5.87339C85.6361 6.7012 85.3313 7.25586 84.2755 7.25586C84.1231 7.25586 83.8944 7.23703 83.7329 7.21822Z" fill="#003F6B"/>
<path d="M90.8206 2.44216H90.2305V1.75582H91.7051V7.21875H90.8206V2.44216Z" fill="#003F6B"/>
<path d="M95.6811 5.31019C95.9293 4.83985 96.0713 4.2378 96.0713 3.57026V1.75577H96.9474V3.48592C96.9474 4.43567 96.7376 5.03703 96.3286 5.56452L95.6811 5.31019ZM93.4556 1.75577H94.3212L94.7302 6.53168H96.8327C97.8983 6.53168 98.5835 5.52688 98.5835 4.18205V1.75577H99.468V4.14441C99.468 5.96795 98.4122 7.21875 96.8991 7.21875H93.931L93.4556 1.75577Z" fill="#003F6B"/>
<path d="M103.682 3.37377C103.682 2.78079 103.368 2.44284 102.711 2.44284H100.876V1.75645H102.759C103.996 1.75645 104.567 2.31043 104.567 3.46712V7.21875H103.682V3.37377Z" fill="#003F6B"/>
</svg>
