<svg width="82" height="28" viewBox="0 0 82 28" fill="none" xmlns="http://www.w3.org/2000/svg">
<g clip-path="url(#clip0_4362_7256)">
<path d="M31.1428 0.000205994L25.4038 0.0142345C25.4038 0.0142345 26.7587 0.220926 27.4538 1.1552C28.1972 2.15494 37.1639 15.4134 37.1639 15.4134C37.1639 15.4134 37.859 16.5918 39.058 16.5918L44.6346 16.574C44.6346 16.574 43.3177 16.2036 42.4156 15.0851C40.9243 13.239 33.0991 1.14114 33.0991 1.14114C33.0991 1.14114 32.5775 -0.0119534 31.1428 0.000205994Z" fill="#18ADE4"/>
<path d="M27.278 8.80414L21.5381 8.81817C21.5381 8.81817 22.8939 9.02486 23.589 9.95913C24.3324 10.9589 27.7012 15.6097 27.7012 15.6097C27.7012 15.6097 28.3963 16.7871 29.5943 16.7871L35.1718 16.7703C35.1718 16.7703 33.855 16.3999 32.952 15.2814C31.4625 13.4344 29.2343 9.9451 29.2343 9.9451C29.2343 9.9451 28.7127 8.79198 27.278 8.80414Z" fill="#E98824"/>
<path d="M51.7883 -0.000549793L46.0493 0.0134802C46.0493 0.0134802 47.4043 0.220171 48.0993 1.15445C48.8427 2.15419 52.2115 6.80498 52.2115 6.80498C52.2115 6.80498 52.9066 7.98242 54.1047 7.98242L59.6822 7.96559C59.6822 7.96559 58.3653 7.59525 57.4632 6.47674C55.9719 4.63063 53.7446 1.14042 53.7446 1.14042C53.7446 1.14042 53.223 -0.0127096 51.7883 -0.000549793Z" fill="#E98824"/>
<path d="M23.5822 0.000205994L29.3221 0.0142345C29.3221 0.0142345 27.9662 0.220926 27.2711 1.1552C26.5277 2.15494 17.5611 15.4134 17.5611 15.4134C17.5611 15.4134 16.866 16.5918 15.6679 16.5918L10.0913 16.574C10.0913 16.574 11.4073 16.2036 12.3102 15.0851C13.8007 13.239 21.6259 1.14114 21.6259 1.14114C21.6259 1.14114 22.1474 -0.0119534 23.5822 0.000205994Z" fill="#2B337A"/>
<path d="M65.5479 0.000205994L71.2869 0.0142345C71.2869 0.0142345 69.932 0.220926 69.2369 1.1552C68.4935 2.15494 59.5268 15.4134 59.5268 15.4134C59.5268 15.4134 58.8308 16.5918 57.6327 16.5918L52.0562 16.574C52.0562 16.574 53.373 16.2036 54.2751 15.0851C55.7664 13.239 63.5916 1.14114 63.5916 1.14114C63.5916 1.14114 64.1123 -0.0119534 65.5479 0.000205994Z" fill="#18ADE4"/>
<path d="M42.2126 0.000205994L36.4727 0.0142345C36.4727 0.0142345 37.8285 0.220926 38.5227 1.1552C39.267 2.15494 48.2327 15.4134 48.2327 15.4134C48.2327 15.4134 48.9278 16.5918 50.1269 16.5918L55.7034 16.574C55.7034 16.574 54.3865 16.2036 53.4845 15.0851C51.994 13.239 44.1689 1.14114 44.1689 1.14114C44.1689 1.14114 43.6473 -0.0119534 42.2126 0.000205994Z" fill="#2B337A"/>
<path d="M0.971097 24.7129V23.1462C0.971097 22.9893 0.949631 22.8377 0.906694 22.6915C0.869078 22.54 0.826139 22.4264 0.777832 22.3506H1.98614C1.98614 22.3506 1.9969 22.3642 2.01837 22.3912C2.03983 22.4183 2.0613 22.4643 2.08277 22.5292C2.10962 22.5942 2.13377 22.678 2.15524 22.7809C2.17671 22.8837 2.18744 23.0055 2.18744 23.1462V24.7129H0.971097Z" fill="#2B337A"/>
<path d="M6.10578 23.1462C6.10021 23.1678 6.08948 23.2301 6.07358 23.3329C6.05749 23.4357 6.03603 23.5656 6.00917 23.7226C5.98232 23.8795 5.95279 24.0554 5.92056 24.2502C5.88832 24.445 5.85611 24.6426 5.8239 24.8428C5.74334 25.3136 5.65471 25.8413 5.55804 26.4258H4.36583L4.83304 23.9336C4.84913 23.847 4.86524 23.7577 4.88139 23.6657C4.90286 23.5737 4.90564 23.4899 4.88974 23.4141C4.87898 23.3383 4.83871 23.2761 4.76892 23.2274C4.70448 23.1733 4.59708 23.1462 4.44671 23.1462H3.53643C3.42903 23.1462 3.3216 23.1354 3.21419 23.1137C3.11216 23.0921 3.01818 23.0515 2.93225 22.992C2.85169 22.9324 2.78456 22.8512 2.73086 22.7484C2.68254 22.6456 2.65839 22.513 2.65839 22.3507V21.3684C2.65839 21.2494 2.65034 21.1411 2.63426 21.0437C2.62349 20.9409 2.61276 20.8543 2.60206 20.7839C2.58597 20.7027 2.56986 20.6297 2.55371 20.5647H3.7137C3.72978 20.6188 3.74861 20.6838 3.77014 20.7596C3.78623 20.8245 3.79965 20.903 3.81042 20.995C3.8265 21.087 3.83455 21.1898 3.83455 21.3035C3.83455 21.5632 3.83733 21.7662 3.8429 21.9123C3.84847 22.053 3.86727 22.1558 3.89932 22.2208C3.93155 22.2857 3.98256 22.3236 4.05237 22.3344C4.12218 22.3453 4.22153 22.3507 4.35042 22.3507H5.36543C5.55339 22.3507 5.69838 22.3886 5.80042 22.4643C5.90245 22.5347 5.97764 22.6186 6.02597 22.716C6.07429 22.808 6.10113 22.8973 6.10652 22.9839C6.11208 23.0705 6.11135 23.1246 6.10578 23.1462Z" fill="#2B337A"/>
<path d="M9.36838 26.4257L8.34533 24.8022C8.31309 24.7535 8.28088 24.7021 8.24867 24.6479C8.22182 24.5938 8.19494 24.5424 8.16809 24.4937C8.14124 24.445 8.1144 24.4071 8.08755 24.38C8.0607 24.3475 8.03654 24.334 8.01507 24.3394C7.98822 24.3394 7.96676 24.3665 7.95067 24.4206C7.93991 24.4693 7.92917 24.5315 7.91847 24.6073C7.9077 24.6831 7.89697 24.7616 7.88627 24.8428C7.8807 24.9239 7.86997 24.9916 7.85407 25.0457L7.53183 26.4257H6.396L7.28212 23.3491L6.52489 22.3506H7.96684L8.80462 23.7144C8.83147 23.7577 8.85562 23.8063 8.87709 23.8605C8.90394 23.9146 8.9281 23.966 8.94957 24.0147C8.97642 24.058 9.00057 24.0959 9.02204 24.1284C9.04351 24.1555 9.06231 24.169 9.07846 24.169C9.09454 24.169 9.11068 24.1473 9.12683 24.1041C9.14292 24.0554 9.15634 23.9985 9.1671 23.9336C9.17787 23.8686 9.1886 23.801 9.1993 23.7307C9.21007 23.6603 9.2208 23.6035 9.2315 23.5602L9.52956 22.3506H10.6815L9.87596 25.1106L10.7782 26.4258L9.36838 26.4257Z" fill="#2B337A"/>
<path d="M13.2912 26.4258V24.096C13.2912 23.9444 13.2804 23.8118 13.259 23.6982C13.2375 23.5791 13.1972 23.479 13.1382 23.3978C13.0845 23.3166 13.0066 23.2544 12.9045 23.2111C12.8079 23.1678 12.679 23.1461 12.5179 23.1461H11.1162V22.3506H12.9368C13.2536 22.3506 13.5168 22.3749 13.7262 22.4236C13.9356 22.4669 14.1021 22.5454 14.2256 22.659C14.3545 22.7673 14.4432 22.9107 14.4915 23.0893C14.5452 23.2679 14.572 23.487 14.572 23.7468V26.4257L13.2912 26.4258Z" fill="#2B337A"/>
<path d="M17.1672 25.0863V22.3506H18.2628V25.0863H17.1672ZM20.1317 24.7616C20.1317 25.1405 20.0914 25.4408 20.0108 25.6627C19.9303 25.8792 19.8148 26.0442 19.6644 26.1579C19.5141 26.2715 19.3288 26.3446 19.1086 26.3771C18.8938 26.4096 18.6494 26.4258 18.3755 26.4258H15.5803L15.1211 22.3507H16.3214L16.6839 25.614H18.0211C18.2144 25.614 18.3702 25.6086 18.4883 25.5978C18.6118 25.5869 18.7058 25.5544 18.7702 25.5003C18.8347 25.4408 18.8777 25.3488 18.8991 25.2243C18.926 25.0999 18.9394 24.924 18.9394 24.6967V22.3506H20.1317V24.7616Z" fill="#2B337A"/>
<path d="M20.8779 24.7129V23.1462C20.8779 22.9893 20.8564 22.8377 20.8135 22.6915C20.7758 22.54 20.7329 22.4264 20.6846 22.3506H21.8929C21.8929 22.3506 21.9036 22.3642 21.9251 22.3912C21.9465 22.4183 21.968 22.4643 21.9895 22.5292C22.0164 22.5942 22.0405 22.678 22.062 22.7809C22.0834 22.8837 22.0942 23.0055 22.0942 23.1462V24.7129H20.8779Z" fill="#2B337A"/>
<path d="M25.6146 26.4257V24.0634C25.6146 23.8686 25.5985 23.7144 25.5663 23.6007C25.5394 23.4817 25.4911 23.3896 25.4213 23.3247C25.3515 23.2598 25.2602 23.2165 25.1474 23.1948C25.04 23.1732 24.903 23.1624 24.7365 23.1624H22.8516V22.3506H25.2682C25.5367 22.3506 25.7676 22.3804 25.961 22.4399C26.1543 22.4941 26.3127 22.5861 26.4363 22.7159C26.5651 22.8458 26.6591 23.0163 26.7182 23.2274C26.7826 23.433 26.8149 23.6874 26.8149 23.9904V26.4258L25.6146 26.4257ZM22.8516 26.4257V24.1609H24.0519V26.4257H22.8516Z" fill="#2B337A"/>
<path d="M32.4696 26.4257V24.0634C32.4696 23.8686 32.4535 23.7144 32.4213 23.6007C32.3944 23.4817 32.3461 23.3896 32.2763 23.3247C32.2064 23.2598 32.1151 23.2165 32.0024 23.1948C31.895 23.1732 31.758 23.1624 31.5915 23.1624H29.7065V22.3506H32.1232C32.3917 22.3506 32.6226 22.3804 32.816 22.4399C33.0093 22.4941 33.1677 22.5861 33.2913 22.7159C33.4202 22.8458 33.5141 23.0163 33.5732 23.2274C33.6376 23.433 33.6699 23.6874 33.6699 23.9904V26.4258L32.4696 26.4257ZM29.7065 26.4257V24.1609H30.9068V26.4257H29.7065Z" fill="#2B337A"/>
<path d="M38.3427 24.8503C38.3427 25.0613 38.3078 25.267 38.2379 25.4672C38.1681 25.6675 38.0661 25.8461 37.9318 26.003C37.803 26.1546 37.6418 26.279 37.4485 26.3765C37.2606 26.4685 37.0484 26.5144 36.8121 26.5144C36.6295 26.5144 36.4711 26.5009 36.3368 26.4738C36.267 26.463 36.2053 26.4495 36.1516 26.4332V25.6296C36.1892 25.6352 36.2348 25.6406 36.2885 25.6459C36.3315 25.6515 36.3825 25.6569 36.4416 25.6621C36.5007 25.6621 36.5678 25.6621 36.643 25.6621C36.7987 25.6621 36.9195 25.5891 37.0055 25.443C37.0967 25.2914 37.1424 25.0939 37.1424 24.8503V23.1456H34.2021V22.3501H38.3427V24.8503ZM34.4116 28V24.2252H35.6199V28H34.4116Z" fill="#2B337A"/>
<path d="M39.1567 26.4258V23.1462C39.1567 23.0163 39.1486 22.9027 39.1326 22.8053C39.1218 22.7078 39.1111 22.6239 39.1004 22.5536C39.0789 22.4778 39.0601 22.4101 39.0439 22.3506H40.2039C40.2308 22.4318 40.255 22.5157 40.2764 22.6023C40.2979 22.678 40.3167 22.7646 40.3329 22.8621C40.3489 22.9541 40.357 23.0542 40.357 23.1624V26.4258H39.1567Z" fill="#2B337A"/>
<path d="M45.5675 22.3503C45.546 22.675 45.5246 22.997 45.5031 23.3163C45.487 23.5869 45.4682 23.8737 45.4467 24.1768C45.4252 24.4798 45.4091 24.745 45.3983 24.9723C45.3769 25.3295 45.3097 25.6083 45.1969 25.8085C45.0895 26.0033 44.9553 26.1467 44.7942 26.2387C44.6384 26.3253 44.4639 26.3794 44.2705 26.401C44.0826 26.4173 43.9 26.4255 43.7228 26.4255C43.5509 26.4311 43.3388 26.4311 43.0864 26.4255C42.8394 26.4255 42.6031 26.4255 42.3775 26.4255H41.5559L41.0967 22.3503L45.5675 22.3503ZM42.4097 23.1458L42.6595 25.6218H43.6342C43.7523 25.6218 43.8463 25.6028 43.9161 25.5649C43.9859 25.527 44.0397 25.4783 44.0773 25.4188C44.1149 25.3539 44.1417 25.2835 44.1578 25.2077C44.1793 25.1265 44.1954 25.0481 44.2061 24.9723C44.2276 24.8262 44.2437 24.6503 44.2545 24.4447C44.2706 24.2336 44.2813 24.0334 44.2867 23.8439C44.2975 23.6545 44.3055 23.4922 44.3108 23.3569C44.3164 23.2162 44.3192 23.1458 44.3192 23.1458L42.4097 23.1458Z" fill="#2B337A"/>
<path d="M50.29 24.8834C50.29 25.1378 50.247 25.3624 50.1611 25.5572C50.0752 25.7466 49.9597 25.9063 49.8147 26.0361C49.6751 26.166 49.5113 26.2634 49.3233 26.3283C49.1353 26.3933 48.942 26.4258 48.7433 26.4258H46.1816V25.6221H47.2289L46.1897 22.3506H47.39L48.3889 25.6221C48.5768 25.6221 48.7379 25.5599 48.8722 25.4354C49.0065 25.311 49.0736 25.1242 49.0736 24.8753V22.3506H50.2819V23.268C50.2819 23.5277 50.2819 23.8037 50.2819 24.096C50.2875 24.3828 50.29 24.6453 50.29 24.8834Z" fill="#2B337A"/>
<path d="M54.2905 26.4251V24.0872C54.2905 23.8978 54.2824 23.7435 54.2663 23.6245C54.2502 23.5054 54.2154 23.4107 54.1616 23.3404C54.1079 23.27 54.0274 23.224 53.92 23.2023C53.8179 23.1753 53.6783 23.1618 53.5011 23.1618H52.5989V25.1019C52.5989 25.3942 52.5854 25.635 52.5586 25.8244C52.5317 26.0084 52.4807 26.1545 52.4055 26.2628C52.3303 26.371 52.2229 26.4441 52.0833 26.482C51.949 26.5252 51.7691 26.5469 51.5436 26.5469C51.3717 26.5469 51.2321 26.5388 51.1247 26.5226C51.0227 26.5117 50.9421 26.4954 50.883 26.4738C50.8239 26.4576 50.7837 26.4387 50.7622 26.417C50.7407 26.3899 50.73 26.3655 50.73 26.3439V25.5322C50.8535 25.6133 50.9636 25.6593 51.0603 25.6702C51.1462 25.681 51.2241 25.6512 51.2939 25.5808C51.3637 25.5105 51.3986 25.3643 51.3986 25.1425V22.35H53.8878C54.2261 22.35 54.5 22.377 54.7094 22.4311C54.9189 22.4798 55.08 22.5664 55.1928 22.6909C55.3109 22.8154 55.3888 22.9831 55.4263 23.1942C55.4693 23.4052 55.4908 23.6732 55.4908 23.9979V26.4251H54.2905Z" fill="#2B337A"/>
<path d="M58.9896 26.4257V24.0634C58.9896 23.8686 58.9735 23.7144 58.9413 23.6007C58.9144 23.4817 58.8661 23.3896 58.7963 23.3247C58.7265 23.2598 58.6352 23.2165 58.5224 23.1948C58.415 23.1732 58.2781 23.1624 58.1116 23.1624H56.2266V22.3506H58.6432C58.9117 22.3506 59.1427 22.3804 59.336 22.4399C59.5293 22.4941 59.6878 22.5861 59.8113 22.7159C59.9402 22.8458 60.0342 23.0163 60.0932 23.2274C60.1577 23.433 60.1899 23.6874 60.1899 23.9904V26.4258L58.9896 26.4257ZM56.2266 26.4257V24.1609H57.4269V26.4257H56.2266Z" fill="#2B337A"/>
<path d="M66.5859 26.4251V24.0872C66.5859 23.8978 66.5778 23.7435 66.5617 23.6245C66.5457 23.5054 66.5108 23.4107 66.457 23.3404C66.4033 23.27 66.3228 23.224 66.2154 23.2023C66.1133 23.1753 65.9737 23.1618 65.7965 23.1618H64.8943V25.1019C64.8943 25.3942 64.8808 25.635 64.854 25.8244C64.8271 26.0084 64.7761 26.1545 64.7009 26.2628C64.6257 26.371 64.5183 26.4441 64.3787 26.482C64.2444 26.5252 64.0645 26.5469 63.839 26.5469C63.6671 26.5469 63.5275 26.5388 63.4201 26.5226C63.318 26.5117 63.2375 26.4954 63.1784 26.4738C63.1194 26.4576 63.0791 26.4387 63.0576 26.417C63.0361 26.3899 63.0254 26.3655 63.0254 26.3439V25.5322C63.1489 25.6133 63.259 25.6593 63.3557 25.6702C63.4416 25.681 63.5195 25.6512 63.5893 25.5808C63.6591 25.5105 63.694 25.3643 63.694 25.1425V22.35H66.1831C66.5215 22.35 66.7954 22.377 67.0048 22.4311C67.2143 22.4798 67.3754 22.5664 67.4882 22.6909C67.6063 22.8154 67.6842 22.9831 67.7218 23.1942C67.7647 23.4052 67.7862 23.6732 67.7862 23.9979V26.4251H66.5859Z" fill="#2B337A"/>
<path d="M68.6376 26.4258V23.1462C68.6376 23.0163 68.6296 22.9027 68.6135 22.8053C68.6028 22.7078 68.592 22.6239 68.5813 22.5536C68.5598 22.4778 68.5411 22.4101 68.5249 22.3506H69.6849C69.7117 22.4318 69.7359 22.5157 69.7574 22.6023C69.7788 22.678 69.7977 22.7646 69.8138 22.8621C69.8299 22.9541 69.8379 23.0542 69.8379 23.1624V26.4258H68.6376Z" fill="#2B337A"/>
<path d="M72.7936 26.4258V24.096C72.7936 23.9444 72.7829 23.8118 72.7614 23.6982C72.74 23.5791 72.6997 23.479 72.6406 23.3978C72.5869 23.3166 72.509 23.2544 72.407 23.2111C72.3103 23.1678 72.1814 23.1461 72.0203 23.1461H70.6187V22.3506H72.4392C72.7561 22.3506 73.0192 22.3749 73.2286 22.4236C73.4381 22.4669 73.6046 22.5454 73.7281 22.659C73.857 22.7673 73.9456 22.9107 73.9939 23.0893C74.0476 23.2679 74.0745 23.487 74.0745 23.7468V26.4257L72.7936 26.4258Z" fill="#2B337A"/>
<path d="M74.9033 24.7129V23.1462C74.9033 22.9893 74.8818 22.8377 74.8389 22.6915C74.8012 22.54 74.7583 22.4264 74.71 22.3506H75.9183C75.9183 22.3506 75.929 22.3642 75.9505 22.3912C75.972 22.4183 75.9935 22.4643 76.015 22.5292C76.0418 22.5942 76.066 22.678 76.0875 22.7809C76.1089 22.8837 76.1197 23.0055 76.1197 23.1462V24.7129H74.9033Z" fill="#2B337A"/>
<path d="M78.8132 25.0863V22.3506H79.9088V25.0863H78.8132ZM81.7776 24.7616C81.7776 25.1405 81.7374 25.4408 81.6568 25.6627C81.5763 25.8792 81.4608 26.0442 81.3104 26.1579C81.16 26.2715 80.9748 26.3446 80.7546 26.3771C80.5398 26.4096 80.2954 26.4258 80.0215 26.4258H77.2263L76.7671 22.3507H77.9674L78.3299 25.614H79.6671C79.8604 25.614 80.0162 25.6086 80.1343 25.5978C80.2578 25.5869 80.3518 25.5544 80.4162 25.5003C80.4807 25.4408 80.5237 25.3488 80.5451 25.2243C80.572 25.0999 80.5854 24.924 80.5854 24.6967V22.3506H81.7776V24.7616Z" fill="#2B337A"/>
</g>
<defs>
<clipPath id="clip0_4362_7256">
<rect width="81" height="28" fill="white" transform="translate(0.777832)"/>
</clipPath>
</defs>
</svg>
