<svg width="141" height="41" viewBox="0 0 141 41" fill="none" xmlns="http://www.w3.org/2000/svg">
<path d="M11.8349 32.43C10.3729 32.43 8.91094 32.2293 7.44894 31.828C6.01561 31.398 4.72561 30.7673 3.57894 29.936C2.43227 29.1047 1.57227 28.0727 0.998941 26.84C0.425608 25.6073 0.282275 24.174 0.568941 22.54C0.626275 22.282 0.755275 22.067 0.955941 21.895C1.15661 21.6943 1.38594 21.594 1.64394 21.594H7.49194C7.89327 21.594 8.17994 21.6943 8.35194 21.895C8.52394 22.0957 8.63861 22.3967 8.69594 22.798C8.69594 24.002 8.99694 24.8763 9.59894 25.421C10.2009 25.9657 11.1183 26.238 12.3509 26.238C13.8989 26.238 15.1459 25.7793 16.0919 24.862C17.0379 23.916 17.6973 22.54 18.0699 20.734L20.6929 8.307H6.80394C6.48861 8.307 6.24494 8.20667 6.07294 8.006C5.92961 7.80533 5.88661 7.54733 5.94394 7.232L6.84694 2.975C6.90428 2.65967 7.04761 2.40166 7.27694 2.201C7.53494 2.00033 7.82161 1.9 8.13694 1.9H28.9489C29.2643 1.9 29.4936 2.00033 29.6369 2.201C29.8089 2.40166 29.8663 2.65967 29.8089 2.975L25.9819 20.949C25.4946 23.443 24.6489 25.55 23.4449 27.27C22.2696 28.9613 20.7216 30.2513 18.8009 31.14C16.9089 32 14.5869 32.43 11.8349 32.43ZM39.6996 32.43C37.4063 32.43 35.4856 32.043 33.9376 31.269C32.3896 30.495 31.2716 29.3913 30.5836 27.958C29.9243 26.496 29.7523 24.7617 30.0676 22.755C30.1249 22.1817 30.2253 21.5367 30.3686 20.82C30.5406 20.0747 30.7126 19.4297 30.8846 18.885C31.4293 16.8497 32.2606 15.1153 33.3786 13.682C34.4966 12.2487 35.9299 11.145 37.6786 10.371C39.4273 9.597 41.5056 9.21 43.9136 9.21C46.1783 9.21 48.0846 9.597 49.6326 10.371C51.1806 11.145 52.3129 12.2487 53.0296 13.682C53.7463 15.1153 53.9469 16.8497 53.6316 18.885C53.5169 19.4297 53.3879 20.0747 53.2446 20.82C53.1013 21.5367 52.9579 22.1817 52.8146 22.755C52.2699 24.7617 51.4529 26.496 50.3636 27.958C49.2743 29.3913 47.8553 30.495 46.1066 31.269C44.3579 32.043 42.2223 32.43 39.6996 32.43ZM40.3446 27.184C41.6346 27.184 42.6809 26.797 43.4836 26.023C44.2863 25.249 44.8883 24.088 45.2896 22.54C45.4043 22.11 45.5333 21.5367 45.6766 20.82C45.8486 20.1033 45.9633 19.53 46.0206 19.1C46.2786 17.5807 46.2069 16.434 45.8056 15.66C45.4043 14.8573 44.5586 14.456 43.2686 14.456C42.0359 14.456 41.0039 14.8573 40.1726 15.66C39.3699 16.434 38.7823 17.5807 38.4096 19.1C38.2949 19.53 38.1516 20.1033 37.9796 20.82C37.8363 21.5367 37.7359 22.11 37.6786 22.54C37.4206 24.088 37.4779 25.249 37.8506 26.023C38.2519 26.797 39.0833 27.184 40.3446 27.184ZM69.0417 32.43C67.4364 32.43 66.0891 32.1577 64.9997 31.613C63.9391 31.0683 63.1507 30.3803 62.6347 29.549L62.3337 30.925C62.2764 31.2403 62.1187 31.4983 61.8607 31.699C61.6314 31.8997 61.3591 32 61.0437 32H56.2277C55.9124 32 55.6687 31.8997 55.4967 31.699C55.3534 31.4983 55.3104 31.2403 55.3677 30.925L61.3877 2.545C61.4451 2.22966 61.5884 1.97167 61.8177 1.771C62.0757 1.57033 62.3624 1.47 62.6777 1.47H67.9237C68.2391 1.47 68.4684 1.57033 68.6117 1.771C68.7837 1.97167 68.8411 2.22966 68.7837 2.545L66.8057 11.747C67.6944 11.0017 68.6261 10.3997 69.6007 9.941C70.6041 9.45367 71.8081 9.21 73.2127 9.21C74.6461 9.21 75.8787 9.45367 76.9107 9.941C77.9714 10.3997 78.8171 11.059 79.4477 11.919C80.0784 12.779 80.5084 13.8253 80.7377 15.058C80.9671 16.2907 80.9384 17.681 80.6517 19.229C80.5657 19.7737 80.4654 20.304 80.3507 20.82C80.2647 21.3073 80.1357 21.8377 79.9637 22.411C79.4477 24.5037 78.6881 26.3097 77.6847 27.829C76.6814 29.3197 75.4487 30.4663 73.9867 31.269C72.5534 32.043 70.9051 32.43 69.0417 32.43ZM67.5367 26.668C68.4827 26.668 69.2711 26.4673 69.9017 26.066C70.5611 25.6647 71.0914 25.12 71.4927 24.432C71.8941 23.744 72.2237 22.9843 72.4817 22.153C72.6251 21.723 72.7397 21.2787 72.8257 20.82C72.9404 20.3613 73.0121 19.917 73.0407 19.487C73.1841 18.6557 73.2127 17.896 73.1267 17.208C73.0407 16.52 72.7827 15.9753 72.3527 15.574C71.9227 15.1727 71.2204 14.972 70.2457 14.972C69.3571 14.972 68.5687 15.1727 67.8807 15.574C67.1927 15.9467 66.6337 16.4483 66.2037 17.079C65.7737 17.681 65.4584 18.3403 65.2577 19.057C65.1144 19.6017 64.9854 20.132 64.8707 20.648C64.7561 21.164 64.6701 21.7087 64.6127 22.282C64.4694 23.056 64.4551 23.7727 64.5697 24.432C64.6844 25.0913 64.9711 25.636 65.4297 26.066C65.9171 26.4673 66.6194 26.668 67.5367 26.668ZM83.3127 32C82.9974 32 82.7537 31.8997 82.5817 31.699C82.4097 31.4983 82.3524 31.2403 82.4097 30.925L86.7097 10.715C86.767 10.3997 86.9247 10.1417 87.1827 9.941C87.4407 9.74033 87.7274 9.64 88.0427 9.64H93.1167C93.4034 9.64 93.6184 9.74033 93.7617 9.941C93.9337 10.1417 93.991 10.3997 93.9337 10.715L89.6767 30.925C89.6194 31.2403 89.4617 31.4983 89.2037 31.699C88.9457 31.8997 88.6734 32 88.3867 32H83.3127ZM88.6877 6.415C88.3724 6.415 88.1287 6.31467 87.9567 6.114C87.8134 5.91333 87.756 5.65533 87.7847 5.34L88.6447 1.513C88.702 1.19767 88.8597 0.939665 89.1177 0.738998C89.3757 0.509665 89.648 0.394999 89.9347 0.394999H95.0947C95.41 0.394999 95.6394 0.509665 95.7827 0.738998C95.9547 0.939665 96.012 1.19767 95.9547 1.513L95.1377 5.34C95.0804 5.65533 94.9227 5.91333 94.6647 6.114C94.4067 6.31467 94.1344 6.415 93.8477 6.415H88.6877ZM98.1104 32C97.8237 32 97.5944 31.8997 97.4224 31.699C97.2504 31.4983 97.1931 31.2403 97.2504 30.925L100.561 15.273H97.2934C96.9781 15.273 96.7344 15.1727 96.5624 14.972C96.4191 14.7713 96.3761 14.5133 96.4334 14.198L97.1644 10.715C97.2217 10.3997 97.3794 10.1417 97.6374 9.941C97.8954 9.74033 98.1677 9.64 98.4544 9.64H101.765L102.066 8.264C102.496 6.31467 103.184 4.75233 104.13 3.577C105.076 2.373 106.252 1.513 107.656 0.996999C109.09 0.452333 110.724 0.18 112.558 0.18H116.557C116.844 0.18 117.059 0.280332 117.202 0.480998C117.374 0.681666 117.432 0.939666 117.374 1.255L116.643 4.738C116.586 5.05333 116.428 5.31133 116.17 5.512C115.912 5.71267 115.64 5.813 115.353 5.813H112.429C111.483 5.813 110.738 6.04233 110.193 6.501C109.677 6.95967 109.333 7.619 109.161 8.479L108.903 9.64H114.106C114.393 9.64 114.608 9.74033 114.751 9.941C114.923 10.1417 114.981 10.3997 114.923 10.715L114.192 14.198C114.135 14.5133 113.977 14.7713 113.719 14.972C113.49 15.1727 113.218 15.273 112.902 15.273H107.699L104.388 30.925C104.331 31.2403 104.173 31.4983 103.915 31.699C103.657 31.8997 103.385 32 103.098 32H98.1104ZM115.845 40.17C115.501 40.17 115.272 40.0123 115.157 39.697C115.042 39.4103 115.085 39.1093 115.286 38.794L120.532 30.538L116.361 10.887C116.304 10.5717 116.375 10.285 116.576 10.027C116.777 9.769 117.092 9.64 117.522 9.64H122.08C122.453 9.64 122.711 9.74033 122.854 9.941C123.026 10.113 123.126 10.3137 123.155 10.543L125.563 23.056L133.432 10.543C133.547 10.3137 133.719 10.113 133.948 9.941C134.206 9.74033 134.521 9.64 134.894 9.64H140.011C140.355 9.64 140.584 9.78333 140.699 10.07C140.842 10.328 140.828 10.6147 140.656 10.93L122.381 39.267C122.238 39.4963 122.037 39.697 121.779 39.869C121.55 40.0697 121.249 40.17 120.876 40.17H115.845Z" fill="#0C3058"/>
</svg>
