<svg width="110" height="25" viewBox="0 0 110 25" fill="none" xmlns="http://www.w3.org/2000/svg">
<g clip-path="url(#clip0_34_26777)">
<path d="M109.387 2.92725H89.5495V24.2184H109.387V2.92725Z" fill="#00C1DE"/>
<path fill-rule="evenodd" clip-rule="evenodd" d="M100.811 18.4316H97.759V19.0607H100.811V18.4316ZM101.575 19.5231H96.9955V20.1522H101.575V19.5231ZM95.8513 20.6146H102.719V21.2437H95.8513V20.6146Z" fill="white"/>
<path d="M99.2966 17.2192C96.6003 17.2192 94.3638 15.2549 93.9373 12.676H93.205C93.6377 15.6548 96.2008 17.942 99.2966 17.942C102.392 17.942 104.953 15.6548 105.388 12.676H104.656C104.227 15.2528 101.991 17.2192 99.2966 17.2192Z" fill="white"/>
<path d="M99.775 7.65794C99.775 8.39327 99.5587 8.74322 99.2944 8.74322C99.0302 8.74322 98.8118 8.40577 98.8118 7.65794C98.8118 6.68931 99.2944 5.90399 99.2944 5.90399C99.2944 5.90399 99.775 6.68931 99.775 7.65794Z" fill="white"/>
<path d="M94.1058 10.9388C94.1058 11.6762 93.8894 12.024 93.6231 12.024C93.3568 12.024 93.1404 11.6866 93.1404 10.9388C93.1404 9.97013 93.6231 9.18481 93.6231 9.18481C93.6231 9.18481 94.1058 9.97013 94.1058 10.9388Z" fill="white"/>
<path d="M105.442 10.9242C105.442 11.6616 105.228 12.0095 104.96 12.0095C104.691 12.0095 104.477 11.6721 104.477 10.9242C104.477 9.95561 104.96 9.17029 104.96 9.17029C104.96 9.17029 105.442 9.95561 105.442 10.9242Z" fill="white"/>
<path d="M98.1127 9.68268H99.2695C100.435 9.68268 100.526 10.0701 100.526 11.5824V13.1281C100.526 14.4592 100.289 14.8779 99.155 14.8779H98.1127V9.68476V9.68268ZM98.8305 14.2717H99.1759C99.7085 14.2717 99.8083 13.9926 99.8083 13.0989V11.3158C99.8083 10.5472 99.7293 10.2868 99.1176 10.2868H98.8305V14.2717Z" fill="white"/>
<path d="M101.129 11.0075C101.129 10.2805 101.367 9.64099 102.342 9.64099C103.054 9.64099 103.385 10.0014 103.385 10.5825V11.1012H102.709V10.7409C102.709 10.4096 102.594 10.2013 102.292 10.2013C101.918 10.2013 101.847 10.4659 101.847 11.0929V13.6405C101.847 14.2508 102.041 14.3592 102.272 14.3592C102.538 14.3592 102.711 14.1717 102.711 13.7405V13.3822H103.387V13.9571C103.387 14.5029 103.164 14.9216 102.33 14.9216C101.425 14.9216 101.129 14.4404 101.129 13.6342V11.0096V11.0075Z" fill="white"/>
<path d="M97.4303 9.68269H96.7105V13.6384C96.7105 14.2488 96.517 14.3571 96.2861 14.3571C96.0198 14.3571 95.8492 14.1696 95.8492 13.7384V13.3781H95.173V13.953C95.173 14.4988 95.3956 14.9175 96.2299 14.9175C97.1349 14.9175 97.4303 14.4363 97.4303 13.6301V9.6806V9.68269Z" fill="white"/>
<path d="M89.5496 20.6709H88.3262V24.2205H89.5496V20.6709Z" fill="#FAAB58"/>
<path d="M89.5496 17.1213H88.3262V20.6709H89.5496V17.1213Z" fill="#B76398"/>
<path d="M89.5496 13.5739H88.3262V17.1234H89.5496V13.5739Z" fill="#F05365"/>
<path d="M89.5496 6.47681H88.3262V10.0264H89.5496V6.47681Z" fill="#B9D989"/>
<path d="M89.5496 2.92725H88.3262V6.47681H89.5496V2.92725Z" fill="#00B4A8"/>
<path d="M89.5496 10.0243H88.3262V13.5739H89.5496V10.0243Z" fill="#009BD3"/>
<path fill-rule="evenodd" clip-rule="evenodd" d="M51.6787 0.779602V4.42082L49.696 10.7555H46.3923L47.4616 0.779602H51.6787ZM8.03049 24.1475H2.55885L0.386841 3.14596H5.5152L7.18373 19.7377H8.03257C11.6193 19.7377 12.9404 18.2316 12.9404 13.1218V7.55583H8.85019V3.14596H18.0688V13.1218C18.0688 21.5583 14.4508 24.1475 8.03049 24.1475ZM19.5771 24.1475V19.7377H21.4974C23.1326 19.7377 23.5737 19.0023 23.5737 17.0422V7.55583H20.8982V3.14596H28.702V17.7421C28.702 22.6435 27.5058 24.1475 23.478 24.1475H19.5771ZM31.5231 15.6069V3.14596H36.6827V15.6069H31.5231ZM38.9379 24.1475V3.14596H44.0975V24.1496H38.9379V24.1475ZM52.5567 24.1475H53.5948L53.5928 24.1496C56.9278 24.1496 58.4694 22.329 59.131 19.4939H59.2891L59.9507 24.1496H64.8585L61.7128 3.14596H53.9402V7.55583H57.5269L58.2197 13.1218C58.7544 17.2525 57.6538 19.7377 53.5948 19.7377H52.5567V24.1475ZM77.8323 24.1475H82.9607L82.9627 24.1496V3.14596H66.6311V7.55583H77.8323V24.1475ZM71.853 24.1475V12.1407H66.6935V24.1475H71.853Z" fill="#00C1DE"/>
</g>
<defs>
<clipPath id="clip0_34_26777">
<rect width="109" height="23.4408" fill="white" transform="translate(0.386841 0.779602)"/>
</clipPath>
</defs>
</svg>
