<svg width="141" height="22" viewBox="0 0 141 22" fill="none" xmlns="http://www.w3.org/2000/svg">
<g clip-path="url(#clip0_4362_7284)">
<mask id="mask0_4362_7284" style="mask-type:luminance" maskUnits="userSpaceOnUse" x="60" y="0" width="22" height="22">
<path d="M70.7773 21.5C76.5763 21.5 81.2773 16.799 81.2773 11C81.2773 5.20101 76.5763 0.5 70.7773 0.5C64.9784 0.5 60.2773 5.20101 60.2773 11C60.2773 16.799 64.9784 21.5 70.7773 21.5Z" fill="white"/>
</mask>
<g mask="url(#mask0_4362_7284)">
<path d="M81.2773 0.5H60.2773V21.5H81.2773V0.5Z" fill="url(#paint0_radial_4362_7284)"/>
</g>
<mask id="mask1_4362_7284" style="mask-type:luminance" maskUnits="userSpaceOnUse" x="0" y="0" width="141" height="22">
<path d="M140.776 0.5H0.776367V21.5H140.776V0.5Z" fill="white"/>
</mask>
<g mask="url(#mask1_4362_7284)">
<path d="M69.3157 13.6716C69.5845 13.8358 69.8542 13.9973 70.1267 14.156C70.2285 14.2652 70.2135 14.4173 70.0866 14.505C69.8925 14.6245 69.6983 14.7421 69.5023 14.8578C69.5154 15.1304 69.5294 15.4029 69.5462 15.6754C69.5481 15.8052 69.4034 15.863 69.2783 15.8593C68.9993 15.8444 68.7202 15.8238 68.4421 15.7986C68.3095 15.7837 68.1705 15.7053 68.1462 15.5784C68.0855 15.1649 68.037 14.7496 67.9969 14.3333C67.9941 14.2764 68.0127 14.2269 68.0463 14.1896C68.0603 14.1588 68.0837 14.1308 68.1163 14.1065C68.373 13.946 68.6278 13.7836 68.8826 13.6193C69.0198 13.5316 69.2037 13.5624 69.3147 13.6716" fill="white"/>
<path d="M70.4534 5.16788C70.7213 5.16695 70.9891 5.17162 71.257 5.18095C71.3653 5.18748 71.5165 5.23135 71.5333 5.34522C71.6238 6.31588 71.6695 7.28935 71.7013 8.26188C71.7031 8.42428 71.5603 8.52042 71.3905 8.66135C71.2421 8.76682 71.1469 8.93855 70.9387 8.94602C70.7138 8.95348 70.6233 8.77988 70.4441 8.64735C70.3507 8.56242 70.1258 8.40468 70.1221 8.24882C70.1342 7.27348 70.151 6.29722 70.1837 5.32188C70.1939 5.20802 70.3479 5.16882 70.4525 5.16602" fill="white"/>
<path d="M68.7423 8.32943C69.1679 8.58983 69.5898 8.85303 70.0107 9.11996C70.1489 9.21703 70.1722 9.38783 70.0705 9.5157C69.7811 9.70236 69.4927 9.89089 69.2053 10.0804C69.0961 10.2026 68.9075 10.2344 68.7638 10.142C68.3083 9.82836 67.8529 9.5129 67.3993 9.19743C67.2443 9.0817 67.2369 8.98463 67.2397 8.90996C67.3218 7.77503 67.4562 6.63916 67.7427 5.53036C67.7763 5.42303 67.9089 5.36236 68.0218 5.3437C68.2719 5.30823 68.523 5.27836 68.775 5.25316C68.8693 5.2457 69.0158 5.2709 69.0055 5.3829C68.8646 6.3601 68.7909 7.3457 68.7433 8.33036" fill="white"/>
<path d="M65.919 16.4054C65.8518 16.2579 65.7267 15.9453 65.666 15.795C65.6343 15.7082 65.7034 15.6681 65.7921 15.6914C68.3979 16.3905 71.2922 16.5025 73.9821 15.9938C74.1715 15.2882 74.2947 14.5705 74.3824 13.849C73.5303 13.2797 72.681 12.7066 71.8345 12.1317C71.6963 12.0318 71.6758 11.8573 71.7766 11.7275C72.0407 11.5343 72.303 11.3393 72.5643 11.1423C72.6698 11.0201 72.8546 10.9911 72.9936 11.0845C73.8747 11.7201 74.7446 12.3687 75.5883 13.0445C75.6639 13.1098 75.6667 13.2069 75.635 13.2927C75.523 14.1234 75.3541 14.9485 75.0778 15.7483C75.2225 15.711 75.3652 15.6718 75.508 15.6298C75.5958 15.6055 75.6555 15.6485 75.6238 15.7306C75.5799 15.8351 75.3979 16.2495 75.3475 16.3643C75.3008 16.4717 75.2355 16.5305 75.117 16.5725C72.4224 17.5319 68.7806 17.5385 66.1486 16.6126C66.03 16.5706 65.9227 16.5193 65.919 16.4045" fill="white"/>
<path d="M74.3937 9.09692C73.3054 9.87905 72.2041 10.6463 71.0953 11.4041C70.9488 11.4975 70.7537 11.4732 70.6408 11.3472L69.8064 10.7853C69.7037 10.6528 69.7317 10.4764 69.8708 10.3747C70.917 9.66345 71.9726 8.96252 73.0422 8.28025C72.976 7.32919 72.8742 6.37905 72.6876 5.44105C72.6708 5.33185 72.8108 5.31039 72.9013 5.32065C73.143 5.35332 73.3838 5.38972 73.6237 5.43359C73.7357 5.45599 73.8608 5.52132 73.8981 5.62585C74.222 6.68145 74.3806 7.77252 74.4786 8.86265C74.4842 8.98585 74.4833 9.03065 74.3937 9.09785" fill="white"/>
<path d="M76.5747 9.71765C75.9764 10.2982 75.3361 10.8414 74.6781 11.3659C74.5568 11.4564 74.3944 11.4303 74.3048 11.3164C74.0649 11.1363 73.8232 10.958 73.5796 10.7807C73.4881 10.6547 73.504 10.4848 73.6319 10.385C74.2544 9.93231 74.8723 9.47311 75.4752 8.99898C75.3697 7.92938 75.1859 6.86165 74.8331 5.83498C74.8032 5.73978 74.9049 5.71738 74.9871 5.73698C75.1877 5.78738 75.3865 5.84245 75.5835 5.90311C75.6871 5.93765 75.786 6.01231 75.8299 6.10565C76.2975 7.21445 76.5215 8.33351 76.6381 9.51231C76.6428 9.60005 76.6381 9.65045 76.5728 9.71671" fill="white"/>
<path d="M66.0776 8.9636C68.5267 10.8004 71.0766 12.5317 73.6908 14.1697C73.786 14.2444 73.8019 14.3135 73.7954 14.4068C73.7487 14.7717 73.6927 15.1357 73.6246 15.4979C73.5966 15.6211 73.465 15.7032 73.3343 15.7228C73.0664 15.7564 72.7986 15.7844 72.5298 15.8077C72.4084 15.8152 72.2712 15.7601 72.2796 15.6332C72.3039 15.4036 72.3263 15.1721 72.3459 14.9416C69.7102 13.4669 67.2107 11.7412 64.995 9.78026C64.8867 9.68133 64.9184 9.5012 64.9203 9.4676C65.037 8.2888 65.2619 7.11093 65.7304 6.00213C65.7743 5.9088 65.8723 5.83413 65.9768 5.7996C66.1738 5.73893 66.3735 5.68386 66.5732 5.63346C66.6563 5.61386 66.7571 5.63626 66.7282 5.73146C66.3679 6.78053 66.184 7.87067 66.0795 8.96267" fill="white"/>
<path d="M67.3943 12.4013C67.6519 12.5795 67.9114 12.755 68.1727 12.9277C68.2959 13.035 68.2754 13.2067 68.1475 13.3047C67.8871 13.4942 67.6267 13.6827 67.3663 13.8713C67.4214 14.421 67.4933 14.9698 67.5913 15.5149C67.6081 15.6325 67.4923 15.6866 67.3766 15.6726C67.133 15.6371 66.8913 15.597 66.6495 15.5513C66.5245 15.5242 66.4097 15.4355 66.3761 15.3207C66.2071 14.6469 66.0942 13.9627 66.0149 13.2758C66.0121 13.2385 66.0177 13.203 66.0307 13.1703C66.0419 13.1405 66.0606 13.1125 66.0877 13.0873C66.3882 12.8371 66.6925 12.5898 66.9977 12.3443C67.1255 12.251 67.2459 12.2734 67.3943 12.4003" fill="white"/>
<path d="M112.27 6.20786H112.269C111.461 5.50599 110.447 5.15039 109.256 5.15039C108.332 5.15039 107.683 5.33239 107.27 5.70666L107.183 5.78412L106.626 7.87946L107.296 8.27892L107.508 8.10439C107.822 7.84399 108.181 7.71799 108.607 7.71799C109.205 7.71799 109.688 7.91679 110.077 8.32372C110.517 8.79412 110.732 9.43719 110.732 10.2903C110.732 11.6912 110.347 12.7879 109.553 13.6419C108.787 14.4679 107.82 14.8795 106.6 14.9L106.324 8.58039C106.278 7.63492 106.015 6.84439 105.542 6.23119C105.006 5.54146 104.284 5.19146 103.394 5.19146H102.617L101.742 7.67599H102.35C103.012 7.67599 103.315 7.99612 103.359 8.74839L103.828 17.3005H106.508C108.612 17.3005 110.353 16.6715 111.683 15.4292C113.077 14.1169 113.783 12.324 113.783 10.0989C113.783 8.39372 113.274 7.08426 112.268 6.20692" fill="#0054A6"/>
<path d="M97.9568 5.19336H96.751L95.7383 7.76189H97.1205C97.3221 7.76189 97.6264 7.76189 97.6264 8.50669V17.3015H100.615V8.14736C100.615 5.70669 99.1683 5.19429 97.9559 5.19429" fill="#0054A6"/>
<path d="M90.4608 5.19234H84.8132L83.8369 7.49021L84.34 7.75994C84.5397 7.86261 84.8048 8.07167 84.8048 8.70541V17.3005H87.7728V8.90701C87.7728 8.46274 87.7233 8.09034 87.6234 7.78234H90.2414C90.793 7.78234 91.2037 7.96901 91.4987 8.35727C91.7833 8.72781 91.928 9.23554 91.928 9.86741V17.2995H94.9165V9.82447C94.9165 6.79394 93.3756 5.19141 90.4608 5.19141" fill="#0054A6"/>
<path d="M135.256 4.9921C133.585 4.9921 132.434 5.20583 131.737 5.64357L131.62 5.71637L130.855 7.9153L131.306 8.48463L131.606 8.2681C131.899 8.05903 132.374 7.8733 133.018 7.71743C133.619 7.5709 134.147 7.49623 134.586 7.49623C137.474 7.49623 137.808 8.9513 137.808 10.0461V17.299H140.777V9.6121C140.777 7.5037 139.819 4.99023 135.256 4.99023" fill="#0054A6"/>
<path d="M116.493 5.19234H115.245L114.232 7.76087H115.73C115.843 7.76087 116.079 7.76087 116.079 8.48327V12.4089H118.569L118.811 12.0803L118.841 12.0346C118.98 11.7826 119.047 11.4214 119.047 10.9342V8.00727C119.047 5.67954 117.658 5.19141 116.493 5.19141" fill="#0054A6"/>
</g>
<path d="M134.144 10.4004H131.156V17.3005H134.144V10.4004Z" fill="#0054A6"/>
<mask id="mask2_4362_7284" style="mask-type:luminance" maskUnits="userSpaceOnUse" x="0" y="0" width="141" height="22">
<path d="M140.776 0.5H0.776367V21.5H140.776V0.5Z" fill="white"/>
</mask>
<g mask="url(#mask2_4362_7284)">
<path d="M128.497 14.1253V9.71996C128.497 6.70342 126.815 5.10742 123.634 5.10742C122.603 5.10742 121.723 5.26049 121.017 5.56196L120.845 5.63476L120.208 7.81316L120.657 8.31809L120.93 8.16502C121.509 7.84022 122.278 7.67689 123.215 7.67689C123.887 7.67689 124.421 7.84769 124.846 8.19956C125.298 8.57382 125.517 9.06476 125.517 9.69849V14.1888C125.517 14.3885 125.534 14.578 125.57 14.7534H120.697L119.757 17.3005H128.885L129.822 15.4684V14.7525H128.75C128.68 14.7525 128.495 14.7525 128.495 14.1244" fill="#0054A6"/>
<path d="M17.4987 6.91035C16.5402 5.76515 15.3362 5.18555 13.9194 5.18555C13.1821 5.18555 12.4914 5.40021 11.8651 5.82115C11.3957 6.13381 11.0149 6.53328 10.7283 7.01488C10.3541 6.39608 9.98167 5.83701 9.6158 5.34421L9.49913 5.18555H6.51807V5.90981L6.57967 6.00875C7.31047 7.16048 7.96847 8.22168 8.53313 9.16435L6.967 17.2937H9.96767L11.3369 10.3823C11.8586 7.73355 12.9842 7.73355 13.3538 7.73355C14.0389 7.73355 14.611 8.08168 15.1047 8.79941C15.6237 9.55168 15.8869 10.4775 15.8869 11.5518C15.8869 12.7353 15.5873 13.6434 14.9946 14.2538C14.4607 14.8063 13.7673 15.0742 12.8731 15.0742C12.5045 15.0742 12.1013 14.9529 11.6757 14.713L11.4162 14.5665L10.9719 15.0173L11.6262 16.9651L11.7391 17.0398C12.1647 17.3207 12.7359 17.4626 13.4369 17.4626C15.0954 17.4626 16.4534 16.8541 17.4745 15.6566C18.4451 14.5161 18.9379 13.0647 18.9379 11.3409C18.9379 9.61701 18.4535 8.07421 17.4987 6.91408L17.4969 6.91128L17.4987 6.91035Z" fill="#0054A6"/>
<path d="M33.9616 12.3834C35.5352 11.2942 36.3332 9.82141 36.3332 8.00141C36.3332 7.17728 36.097 6.49688 35.6304 5.97981C35.1534 5.45248 34.5169 5.18555 33.7366 5.18555H32.2209L31.1522 7.55248H32.5242C32.7688 7.55248 33.3437 7.55248 33.3437 8.93101C33.3437 9.59648 33.1729 10.1649 32.822 10.6549C31.5844 8.93008 30.1881 7.13901 28.6658 5.32461L28.5482 5.18555H25.4888V5.93875L25.5821 6.04981C26.5892 7.25101 27.4189 8.26741 28.0536 9.07568C27.7288 9.30248 27.4329 9.55355 27.1688 9.82608C26.1664 10.863 25.6568 12.3255 25.6568 14.1717C25.6568 15.1983 25.8836 15.9982 26.3316 16.547C26.7357 17.0426 27.2388 17.2937 27.8258 17.2937H29.5254L30.5194 14.9463H29.4134C29.1586 14.9463 28.5622 14.9463 28.5622 13.4315C28.5622 12.1099 28.803 11.1887 29.28 10.6847C30.511 12.2677 31.9456 14.4237 33.5481 17.1023L33.662 17.2937H36.5842V16.6058L36.5366 16.5171C36.0737 15.6538 35.2076 14.2641 33.9625 12.3834" fill="#0054A6"/>
<path d="M3.03739 5.18555H1.78952L0.776855 7.75408H2.27486C2.38779 7.75408 2.62392 7.75408 2.62392 8.47741V12.403H5.11312L5.35579 12.0754L5.38472 12.0287C5.52379 11.7758 5.59099 11.4165 5.59099 10.9283V8.00141C5.59099 5.67368 4.20126 5.18555 3.03646 5.18555" fill="#0054A6"/>
<path d="M21.388 5.18555H20.1821L19.1694 7.75408H20.5526C20.7542 7.75408 21.0585 7.75408 21.0585 8.49888V17.2937H24.047V8.13955C24.047 5.69888 22.6004 5.18648 21.388 5.18648" fill="#0054A6"/>
<path d="M51.5779 4.98429C49.9072 4.98429 48.7564 5.19802 48.0592 5.63576L47.9426 5.70856L47.1772 7.90749L47.6271 8.47682L47.9295 8.26029C48.2216 8.05122 48.6967 7.86642 49.3407 7.71056C49.9418 7.56309 50.47 7.48936 50.9096 7.48936C53.7974 7.48936 54.1306 8.94442 54.1306 10.0392V17.2922H57.0986V9.60522C57.0986 7.49682 56.141 4.98242 51.5779 4.98242" fill="#0054A6"/>
</g>
<path d="M50.4661 10.3945H47.4775V17.2947H50.4661V10.3945Z" fill="#0054A6"/>
<mask id="mask3_4362_7284" style="mask-type:luminance" maskUnits="userSpaceOnUse" x="0" y="0" width="141" height="22">
<path d="M140.776 0.5H0.776367V21.5H140.776V0.5Z" fill="white"/>
</mask>
<g mask="url(#mask3_4362_7284)">
<path d="M45.7445 5.20766H40.4963V1.13086H37.5078V6.82979C37.5078 7.42619 37.8503 7.79673 38.401 7.79673H42.9659L39.4986 17.2943H42.5394L46.4958 6.38179C46.5481 6.25206 46.5742 6.12233 46.5742 5.99446C46.5742 5.51659 46.2485 5.20673 45.7435 5.20673" fill="#0054A6"/>
</g>
</g>
<defs>
<radialGradient id="paint0_radial_4362_7284" cx="0" cy="0" r="1" gradientUnits="userSpaceOnUse" gradientTransform="translate(70.7764 11.0028) scale(10.5)">
<stop stop-color="#7BAFDE"/>
<stop offset="0.19" stop-color="#77ABDB"/>
<stop offset="0.37" stop-color="#6D9FD1"/>
<stop offset="0.55" stop-color="#5C8CC2"/>
<stop offset="0.72" stop-color="#4470AD"/>
<stop offset="0.89" stop-color="#254E92"/>
<stop offset="1" stop-color="#10357F"/>
</radialGradient>
<clipPath id="clip0_4362_7284">
<rect width="140" height="21" fill="white" transform="translate(0.777832 0.5)"/>
</clipPath>
</defs>
</svg>
